<?xml version="1.0" standalone="no"?><!DOCTYPE svg PUBLIC "-//W3C//DTD SVG 1.1//EN" "http://www.w3.org/Graphics/SVG/1.1/DTD/svg11.dtd"><svg t="1582178197132" class="icon" viewBox="0 0 1028 1024" version="1.1" xmlns="http://www.w3.org/2000/svg" p-id="5921" xmlns:xlink="http://www.w3.org/1999/xlink" width="257" height="256"><defs><style type="text/css"></style></defs><path d="M513.456734 0.004869a97.374085 97.374085 0 0 0-89.584158 56.96384L319.682305 279.468493l-233.697805 35.541542A97.374085 97.374085 0 0 0 29.994401 482.006591l171.86526 176.247094-40.410245 248.790788a97.374085 97.374085 0 0 0 97.374085 114.901421 97.374085 97.374085 0 0 0 48.687043-12.658631l206.433061-113.92768 206.433061 114.41455a97.374085 97.374085 0 0 0 146.061127-102.72966l-40.410245-248.790788 171.37839-176.247094a97.374085 97.374085 0 0 0-55.990099-166.509686l-233.697805-36.028412-104.677141-222.499784A97.374085 97.374085 0 0 0 513.456734 0.004869z m0 82.281102a16.553594 16.553594 0 0 1 15.092984 9.737408l119.283254 254.146363a16.553594 16.553594 0 0 0 12.658631 9.250538l266.318123 40.897116a17.040465 17.040465 0 0 1 9.250538 28.238485l-194.74817 199.616874a16.553594 16.553594 0 0 0-4.381834 14.606113l45.76582 281.411107a17.040465 17.040465 0 0 1-16.553594 19.474817 16.553594 16.553594 0 0 1-8.276798 0l-238.079638-131.455016a17.040465 17.040465 0 0 0-16.066724 0l-238.079639 131.455016a16.553594 16.553594 0 0 1-8.276797 0 17.040465 17.040465 0 0 1-16.553594-19.474817l45.76582-281.411107a16.553594 16.553594 0 0 0-4.381834-14.606113l-194.748171-199.616874A17.040465 17.040465 0 0 1 99.130001 396.317396l267.291865-40.897116a16.553594 16.553594 0 0 0 12.658631-9.250538l119.283254-254.146363a16.553594 16.553594 0 0 1 15.092983-9.737408z" fill="#1296db" p-id="5922"></path></svg>