<?xml version="1.0" standalone="no"?><!DOCTYPE svg PUBLIC "-//W3C//DTD SVG 1.1//EN" "http://www.w3.org/Graphics/SVG/1.1/DTD/svg11.dtd"><svg t="1584864103483" class="icon" viewBox="0 0 1024 1024" version="1.1" xmlns="http://www.w3.org/2000/svg" p-id="3007" xmlns:xlink="http://www.w3.org/1999/xlink" width="256" height="256"><defs><style type="text/css"></style></defs><path d="M510.599605 66.156746c-184.706769 0-334.402139 149.689231-334.402139 334.38372 0 184.668906 334.402139 557.302789 334.402139 557.302789s334.390883-372.632859 334.390883-557.302789C844.990488 215.845976 695.276698 66.156746 510.599605 66.156746L510.599605 66.156746zM512.336156 621.719914c-123.132388 0-222.931349-99.816357-222.931349-222.924185 0-123.125225 99.79896-222.919069 222.931349-222.919069 123.111922 0 222.933395 99.793844 222.933395 222.919069C735.269551 521.903557 635.448078 621.719914 512.336156 621.719914L512.336156 621.719914zM512.336156 262.953877c-76.962859 0-139.331325 62.370513-139.331325 139.324162 0 76.955696 62.367443 139.329279 139.331325 139.329279 76.91681 0 139.335419-62.374606 139.335419-139.329279C651.671575 325.32439 589.252966 262.953877 512.336156 262.953877L512.336156 262.953877zM512.336156 262.953877" p-id="3008" fill="#f39901"></path></svg>