<?xml version="1.0" standalone="no"?><!DOCTYPE svg PUBLIC "-//W3C//DTD SVG 1.1//EN" "http://www.w3.org/Graphics/SVG/1.1/DTD/svg11.dtd"><svg t="1582177966301" class="icon" viewBox="0 0 1024 1024" version="1.1" xmlns="http://www.w3.org/2000/svg" p-id="2764" xmlns:xlink="http://www.w3.org/1999/xlink" width="256" height="256"><defs><style type="text/css"></style></defs><path d="M316.24 928h403.744c1.424 0 2.816-0.144 4.16-0.432 35.584-1.456 68.208-20.944 85.904-51.568 0.496-0.88 0.944-1.792 1.312-2.72 3.808-9.6 93.696-235.808 111.664-302.8 20.784-77.536-25.408-157.536-102.992-178.32-11.376-3.056-23.36-4.48-37.568-4.48l-97.392-0.384c12.08-55.168 14.112-137.952 14.112-187.296 0-57.36-46.672-104-104-104a104.112 104.112 0 0 0-104 104v20.8c0 104.432-77.376 191.104-177.792 205.792 1.856 3.328 2.832 7.088 2.832 10.912V928z m-137.056 0h88.112V437.504c0-3.072 0.64-6.016 1.76-8.72H179.2A83.28 83.28 0 0 0 96 512v332.8c0 45.888 37.296 83.2 83.2 83.2z" fill="#FFBD27" p-id="2765"></path></svg>