<?xml version="1.0" standalone="no"?><!DOCTYPE svg PUBLIC "-//W3C//DTD SVG 1.1//EN" "http://www.w3.org/Graphics/SVG/1.1/DTD/svg11.dtd"><svg t="1581397361499" class="icon" viewBox="0 0 1024 1024" version="1.1" xmlns="http://www.w3.org/2000/svg" p-id="1653" width="256" height="256" xmlns:xlink="http://www.w3.org/1999/xlink"><defs><style type="text/css"></style></defs><path d="M1002.709333 371.841219L851.709562 133.751467c-13.185219-20.7616-40.738133-26.904381-61.561905-13.833753L36.551924 596.655543c-20.766476 13.185219-26.904381 40.738133-13.861791 61.442438L173.689905 896.21821c13.186438 20.709181 40.738133 26.847086 61.505828 13.777676l753.623772-476.704915c20.823771-13.192533 27.079924-40.711314 13.889828-61.449752z m-30.076343 35.861943L219.009219 884.470248c-6.665752 4.199619-15.390476 2.233295-19.590095-4.404419L48.419352 641.946819c-4.200838-6.666971-2.233295-15.362438 4.432458-19.619352l753.653028-476.737829c6.671848-4.171581 15.42339-2.200381 19.562057 4.437333l151.061943 238.115353c4.052114 6.523124 2.056533 15.275886-4.495848 19.560838zM322.985448 256.618057l12.514742 30.014172 16.214553-28.166096 32.394971-2.614857-21.82339-24.143238 7.432533-31.575771-29.609447 13.309562-27.813791-16.833829 3.523048 32.338895-24.671086 21.033448 31.837867 6.637714z m191.885409-89.352533l-15.567238-28.575695-13.185219 29.752076-32.014629 6.109866 24.171277 21.675886-4.171581 32.219429 28.195352-16.301105 29.404648 13.953219-6.785219-31.837867 22.290285-23.61539-32.337676-3.380419z m292.548267 478.676114l-25.762134-19.799771-0.11459 32.457143-26.904381 18.243047 30.985752 10.220495 9.133105 31.161296 19.209753-26.229029 32.514438 0.910629-19.090286-26.372877 11.014095-30.461561-30.985752 9.870628zM702.266514 775.350857l-12.275809-30.104381-16.481524 28.052724-32.366933 2.349105 21.61859 24.260266-7.695848 31.542858 29.781334-13.009677 27.700419 17.209296-3.262172-32.366934 24.671086-21.000533-31.689143-6.932724z m-192.624152 88.00061l15.424609 28.695162 13.452191-29.666743 32.014628-5.723429-24.028647-21.914819 4.409295-32.190171-28.314819 16.009752-29.257143-14.1568 6.519467 31.775695-22.614553 23.530057 32.394972 3.641296zM221.09501 382.417676l25.614628 20.119162 0.380343-32.485181 27.023848-18.152838-30.813867-10.428952-8.900267-31.3088-19.44259 26.052266-32.514438-1.176381 18.82819 26.494781-11.223771 30.548115 31.047924-9.662172zM106.691048 522.665448c-3.4048-137.519543 63.47581-273.481143 188.071009-352.285258 124.623238-78.805333 276.124038-81.038629 399.190553-19.295085l29.724038-18.800153c-36.419048-20.353219-75.600457-35.247543-116.866438-44.500114-55.133867-12.395276-111.290514-13.948343-166.805943-4.814019-57.480533 9.513448-111.818362 30.251886-161.456762 61.70941-49.609143 31.456305-91.671162 71.637333-124.862172 119.514209-32.132876 46.171429-54.718171 97.604267-67.142704 152.646705-9.252571 41.205029-12.542781 82.972038-9.662172 124.596419l29.810591-18.772114z m809.285485-21.028572c3.552305 137.519543-63.328305 273.481143-187.923504 352.257219-124.5952 78.890667-276.122819 81.066667-399.162515 19.324343l-29.781333 18.828191c36.419048 20.294705 75.628495 35.220724 116.900571 44.470857 55.127771 12.395276 111.285638 14.010514 166.799848 4.814019 57.480533-9.514667 111.819581-30.223848 161.428724-61.681372s91.671162-71.638552 124.890209-119.486171c32.014629-46.228724 54.599924-97.628648 66.9952-152.643048 9.28061-41.237943 12.514743-83.03299 9.632915-124.656152l-29.780115 18.772114zM384.637562 312.189562c34.895238-22.02819 73.281829-33.781029 111.819581-36.128914l45.994667-29.080381c-60.771962-7.166781-121.628038 6.523124-174.143391 39.684876-52.371505 33.128838-90.761752 82.328381-110.2336 140.247771l45.966629-29.075504c18.681905-33.95779 45.73501-63.562362 80.596114-85.647848zM638.147048 712.084724c-34.895238 22.090362-73.252571 33.838324-111.790324 36.186209l-45.967848 29.080381c60.743924 7.166781 121.571962-6.552381 174.115353-39.714133 52.371505-33.099581 90.761752-82.328381 110.204342-140.247771l-45.93859 29.137676c-18.679467 33.80541-45.76061 63.529448-80.622933 85.557638z m-338.951315-63.914667" p-id="1654" fill="#fd9e00"></path><path d="M155.215238 608.926476l26.474057-1.788343c-3.997257 3.347505-7.336229 15.221029-10.025447 35.637638-2.3296 20.976152-8.213943 41.892571-17.643277 62.728534l-3.456-1.288534c4.717714-18.600229 7.494705-36.154514 8.317562-52.656761 0.816762-16.479086-0.410819-30.699276-3.666895-42.632534z m51.504762 80.304762L275.748571 796.854857l-10.793447 13.933714c-7.883581-13.639924-15.345371-25.979124-22.430476-37.026133l-39.823848-62.090971c-3.139048 18.371048-8.5248 36.6336-16.169448 54.771809l-3.456-1.286095c6.242743-25.8048 9.375695-49.631086 9.406172-71.466667 0.0256-21.814857-1.015467-37.121219-3.130514-45.897143l25.541485-1.193447c-3.641295 3.90461-6.370743 18.107733-8.172495 42.631314z m46.2848-93.950781c-9.201371-14.345752-17.128838-26.002286-23.764114-35.001295l27.677257-6.065981-4.671391 11.17379 13.805715 21.523505 28.890209-18.528305 4.410514-15.683047 24.869791 3.911924-54.985143 35.267047 21.239467 33.116648 46.598095-29.88861 4.811581-17.106895 26.333867 4.141105-120.222477 77.108419c-8.081067 5.18339-15.006476 10.793448-20.77379 16.83139l-13.165714-2.071162 63.37219-40.646704-21.239467-33.115429-27.958857 17.932191-11.053104 9.426895-11.702858-1.840762 47.528229-30.484724z m84.946895 140.645181c17.290971-7.199695 28.192914-12.440381 32.677791-15.700114 4.477562-3.274362 5.305295-7.111924 2.475885-11.521219l-37.168761-57.952305-74.556953 47.819581-7.325257 7.037562-11.705295-1.8432 90.399695-57.981562c-3.8912-6.0672-9.520762-14.140952-16.860648-24.238324l27.274972-4.642133-5.201676 10.347276 6.902247 10.760533 13.047467-8.366323 4.8128-17.106896 26.332648 4.139886-41.006324 26.299733 39.292343 61.264457c6.371962 9.9328 4.444648 21.283352-5.764877 34.078477-6.112305-5.428419-19.774171-4.845714-40.973409 1.7408l-2.652648-4.136229z m-59.677257-37.671009c19.594971-0.886248 31.5392-0.366933 35.847314 1.543314 4.293486 1.921219 7.33501 4.259352 9.102629 7.016838 1.06179 1.654248 1.762743 4.126476 2.118705 7.402057 0.340114 3.287771-0.607086 6.230552-2.872076 8.855162-2.26499 2.618514-6.627962 0.944762-13.096229-5.040762-6.459733-5.968457-17.412876-11.413943-32.835048-16.329143l1.734705-3.447466z" p-id="1655" fill="#fd9e00"></path><path d="M264.2176 821.692952l-4.539733-7.854323c-7.914057-13.692343-15.412419-26.069333-22.284191-36.785981l-31.720838-49.456762c-3.270705 13.822781-7.798248 27.629714-13.524114 41.214781l-2.267429 5.382095-14.001981-5.207772 1.272686-5.258971c6.098895-25.209905 9.206248-48.775314 9.235505-70.0416 0.0256-21.244343-0.971581-36.203276-2.961067-44.462324l-1.728609-7.171657 47.854933-2.235733-10.200991 10.94339c-0.454705 0.521752-2.21379 3.240229-4.047238 15.213715l53.706362-34.447848-14.657828-22.853486-22.479238 14.417676-12.870705 10.977524-30.317714-4.767695 55.886019-35.846095c-7.639771-11.761371-14.433524-21.685638-20.234972-29.552153l-5.574705-7.560533 48.301105-10.58621-7.957943 19.037867 8.788115 13.700876 21.809981-13.987352 5.249219-18.667276 46.064152 7.246019-63.355124 40.635733 14.657829 22.854705 39.517866-25.346438 5.650286-20.088686 47.52701 7.4752-53.032229 34.012648 22.044038-3.75101-9.055086 18.011429 1.735924 2.707505 5.968457-3.82781 5.651505-20.088686 47.52701 7.472762-49.377524 31.669638 36.002133 56.133486c5.432076 8.467505 8.778362 22.485333-6.131809 41.169676l-4.008229 5.022476-4.804267-4.266666c-1.57501-1.399467-4.637257-2.139429-8.852723-2.139429-6.442667 0-15.279543 1.731048-26.264381 5.143162l-4.432457 1.377524-9.08922-14.166553 6.714515-2.796495c20.8896-8.697905 28.625676-12.959695 31.438019-15.004038 2.0736-1.515276 1.877333-1.822476 0.928914-3.298743l-33.878552-52.822552-51.126857 32.791162c4.259352-0.149943 8.139581-0.225524 11.578514-0.225524 14.567619 0 19.432838 1.327543 22.044038 2.484419 5.406476 2.41859 9.35741 5.545448 11.763809 9.300114 1.584762 2.46979 2.581943 5.753905 3.0464 10.033981 0.514438 4.972495-0.980114 9.628038-4.317866 13.494857-1.848076 2.135771-4.4288 3.309714-7.2704 3.309715-4.208152 0-8.705219-2.423467-14.578591-7.8592-5.766095-5.328457-16.043886-10.374095-30.545676-14.995505l-6.802286-2.167467 2.748953-5.466209-5.463772 3.504762-9.077028 8.721066-30.534705-4.806704L324.266667 643.983848c-3.337752-4.951771-7.573943-10.959238-12.821943-18.18941L251.288381 664.380952c-7.639771 4.900571-14.253105 10.25219-19.657143 15.909791l-2.204038 2.307657-15.826895-2.489295c-0.223086 2.328381-0.440076 4.839619-0.649753 7.547124l70.250058 109.530209-18.98301 24.506514z m-64.877714-126.550552l48.313295 75.32861c5.635657 8.786895 11.678476 18.6624 18.016305 29.44l2.624609-3.387734-67.803428-105.713371 0.148723-2.026057c0.2816-3.838781 0.581486-7.355733 0.893562-10.575238l-3.158552-0.496153c0.14019 4.872533 0.206019 10.196114 0.199924 15.984153a237.533867 237.533867 0 0 1-0.097524 6.48899l0.863086-5.0432z m169.339124 33.409219c4.304457 0 8.044495 0.60221 11.1872 1.796876 7.653181-11.585829 5.116343-18.49539 2.347885-22.812038l-51.258514-79.915886 1.349486-2.683123-5.76 0.980114c4.699429 6.601143 8.404114 12.014933 11.229866 16.414476l40.458972 63.083276c4.59459 7.160686 3.095162 14.538362-4.010667 19.732724-1.367771 0.994743-3.21219 2.128457-5.544228 3.403581z m-69.694172-24.572343c6.030629 2.992762 10.843429 6.170819 14.527391 9.5744 2.592914 2.399086 4.299581 3.560838 5.307733 4.120381 0.430324-0.872838 0.570514-1.777371 0.4608-2.831847-0.349867-3.2256-0.995962-4.44221-1.184914-4.73722-1.091048-1.700571-3.324343-3.34019-6.462172-4.745752-0.649752-0.285257-3.39139-1.162971-12.648838-1.379962z m-102.375619-50.423466c0.8704 6.111086 1.448229 13.834971 1.742019 23.287466l3.5584-2.283276c1.066667-9.862095 2.275962-16.644876 3.542552-21.416229l-8.842971 0.412039z m64.817981-56.43581l21.028571 32.787505 2.786743-1.787124-39.851885-62.133638 1.383619-3.310933-7.169219 1.571352c5.497905 7.809219 11.669943 17.047162 18.427123 27.577295l3.395048 5.295543z m105.699962 22.282971l-1.408 5.006629 6.546286-4.1984-5.138286-0.808229z m-20.8384-34.540495l-1.408 5.007848 6.547505-4.199619-5.139505-0.808229z m-42.533791-25.298895l-1.006933 3.581562 4.683581-3.004953-3.676648-0.576609zM157.227886 713.205029l-13.91421-5.185829 1.34461-5.301638c4.603124-18.149181 7.341105-35.463314 8.138362-51.462095 0.78019-15.750095-0.384-29.45219-3.459658-40.724724l-1.960228-7.185067 52.576305-3.551086-14.34941 12.014934c-0.427886 0.37181-4.291048 4.425143-7.887238 31.701333-2.39421 21.495467-8.497981 43.198171-18.140648 64.505905l-2.347885 5.188267z m5.546666-98.679467c1.816381 9.257448 2.62339 19.653486 2.411277 31.054019 0.151162-1.159314 0.291352-2.31741 0.420571-3.475505l0.014629-0.123124c1.765181-13.403429 3.665676-22.162286 5.5808-28.024685l-8.427277 0.569295z" p-id="1656" fill="#fd9e00"></path><path d="M551.187505 436.746971l-0.629029-27.639466-154.704457 99.2256c2.388114 2.375924 4.649448 5.198019 6.774248 8.508952 2.480762 3.868038 3.260952 7.839695 2.378362 11.911314-0.897219 4.081371-3.445029 7.286248-7.661715 9.58781-4.222781 2.323505-6.854705 2.642895-7.916495 0.988648-1.410438-2.197943-1.7664-5.475962-1.050819-9.841372 1.073981-9.251352-1.170286-20.281295-6.740114-33.066667l3.727847-2.390552 7.303315 9.336686 153.774323-98.628267 3.076877-13.658209 25.401295 4.739657c-9.319619 5.97699-15.950019 19.576686-19.876572 40.789333l-3.857066 0.136533z m-62.604191 62.353067c-7.7824-12.133181-14.830933-22.418286-21.109028-30.861409l27.27619-4.640915-4.670171 11.17501 10.619124 16.557105 51.257295-32.875277 1.214171-12.463542 20.349562 0.966704-3.336533 9.151391c23.720229 36.982248 38.363429 59.139657 43.94179 66.458819l-9.33059 14.164114-6.902248-10.761752-53.121219 34.071162c14.518857 22.636495 24.547962 37.600305 30.136076 44.935314l-10.261943 14.759009c-6.117181-10.882438-16.764343-28.188038-31.989028-51.924114l-52.189867 33.473829 4.247162 6.621866-10.392381 12.507429c-7.170438-12.523276-16.059733-27.088457-26.678857-43.645562s-19.966781-30.42621-28.012495-41.624381l16.764343-2.573409 52.188647-33.471391z m-56.448-65.449448l1.734705-3.448685c11.800381-2.108952 20.302019-2.503924 25.541486-1.192229 5.224838 1.321448 8.733257 3.362133 10.500876 6.117181 1.774933 2.768457 2.450286 6.224457 2.048 10.371657-0.408381 4.167924-1.233676 6.631619-2.47101 7.425219-1.862705 1.194667-5.013943-0.287695-9.437866-4.461714-6.460952-5.969676-15.776914-10.912914-27.916191-14.811429z m7.444724 103.889677l16.991086 26.492343 52.189866-33.473829-16.991085-26.492343-52.189867 33.473829z m20.177676 31.459962l17.521372 27.318857 52.189866-33.473829-17.521371-27.318857-52.189867 33.473829z m44.127086-72.704l16.991086 26.491123 53.121219-34.071162-16.991086-26.491123-53.121219 34.071162z m20.177676 31.459961l17.522591 27.318858 53.121219-34.071162-17.522591-27.318857-53.121219 34.071161z" p-id="1657" fill="#fd9e00"></path><path d="M564.096 631.203352l-4.765257-8.478476c-5.672229-10.091276-15.2576-25.713371-28.520838-46.485943l-41.923048 26.888534 3.365791 5.246781-18.857448 22.69379-4.36419-7.622705c-7.199695-12.575695-16.123124-27.172571-26.519162-43.383466-10.3936-16.206019-19.757105-30.120229-27.830858-41.358629l-4.434895-6.172038c-1.6896 4.67261-5.098057 8.494324-9.980343 11.159162-3.4304 1.888305-6.1952 2.770895-8.682057 2.770895-3.063467 0-5.718552-1.399467-7.285028-3.842438-2.257676-3.518171-2.898895-8.088381-1.960229-13.965409 0.906971-8.112762-1.208076-18.13821-6.289067-29.79962l-2.074819-4.7616 12.771962-8.189561 7.303315 9.336685 63.563581-40.768609a50.23939 50.23939 0 0 1-1.744458-1.573791c-5.731962-5.297981-14.359162-9.834057-25.596342-13.442438l-6.781562-2.178438 6.304914-12.537905 3.002514-0.536381c12.898743-2.306438 21.84899-2.669714 28.095391-1.104457 6.866895 1.737143 11.490743 4.59459 14.149485 8.736915 1.765181 2.753829 2.786743 5.934324 3.053715 9.4976l62.947962-40.374858 3.819276-16.9472 46.289676 8.636953-12.942629 8.301714c-7.805562 5.007848-13.585067 17.377524-17.172723 36.768914l-0.468115 2.520991 21.513753 1.022781-5.140724 14.097066c22.612114 35.223162 36.74819 56.584533 42.029105 63.5136l2.619733 3.437715-16.866743 25.604876-8.674743-13.524114-42.853181 27.485866c12.635429 19.604724 21.561295 32.847238 26.556953 39.405715l2.689219 3.530361-18.347886 26.391162z m-133.802667-91.526095c6.79619 9.768229 14.329905 21.096838 22.479238 33.802972 8.48701 13.231543 16.009752 25.413486 22.436572 36.330057l1.965105-2.364953-43.771124-68.244723-3.109791 0.476647z m107.595581 25.008762c11.693105 18.230857 20.815238 32.875276 27.224991 43.6992l2.291809-3.296305c-5.933105-8.2176-15.067429-21.957486-27.766247-41.754819l-56.416305-87.9616 1.633524-3.908266-6.699886 1.139809c4.829867 6.837638 10.003505 14.55299 15.451429 23.042438l44.280685 69.039543z m-69.710019 6.154971l10.939734 17.056915 41.927923-26.89341-10.939733-17.056914-41.927924 26.893409z m-20.177676-31.459961l10.410667 16.2304 41.927924-26.892191-10.410667-16.231619-41.927924 26.89341z m84.482438-9.785296l10.940953 17.058134 42.860495-27.490743-10.940953-17.056914-42.860495 27.489523zM393.849905 515.154895c0.924038 5.372343 1.120305 10.3936 0.582705 15.034515l-0.040229 0.282819a19.710781 19.710781 0 0 0-0.273067 2.683123l0.286476-0.156038c3.491352-1.905371 4.323962-4.08381 4.648229-5.557638 0.538819-2.484419 0.045105-4.814019-1.555505-7.310628a48.082895 48.082895 0 0 0-3.648609-4.976153z m11.209143-5.485714a62.827276 62.827276 0 0 1 2.698971 3.880229c3.362133 5.243124 4.44099 10.792229 3.204876 16.492495l-0.06339 0.279162 23.291124-3.576686 45.949561-29.471695c-6.145219-9.415924-11.884495-17.732267-17.106895-24.788115l-57.974247 37.18461z m198.068419 13.175467l1.734704 2.706285 1.844419-2.798933c-6.914438-9.710933-20.614095-30.549333-41.653638-63.350248l-1.629866-2.541714 1.533562-4.205714-6.281753-0.298667-0.162133 1.662781 0.3328-0.214552 44.281905 69.040762z m-90.821486-24.708877l10.409448 16.2304 42.860495-27.489523-10.409448-16.2304-42.860495 27.489523z m-15.369752-23.962819l5.602742 8.735696 43.637029-27.988115 1.162971-11.936914-2.106514 0.075581-0.521752-22.959543-61.148648 39.220419 21.079772-3.586438-7.7056 18.439314z m-46.860191-39.789714c5.566171 2.857448 10.286324 6.0672 14.111695 9.603657 0.622933 0.586362 1.170286 1.071543 1.648153 1.470172l0.058514-0.552229c0.26941-2.775771-0.095086-4.900571-1.11299-6.487771-0.404724-0.631467-1.885867-2.238171-6.865677-3.498667-1.867581-0.466895-4.540952-0.654629-7.839695-0.535162z m106.339962-35.815619l0.248686 10.962895c1.695695-3.742476 3.576686-7.02659 5.649066-9.862095l-5.897752-1.1008z m-2.241829-0.419352l-0.368152 1.633523 2.057752-1.319009-1.6896-0.314514z" p-id="1658" fill="#fd9e00"></path><path d="M727.823848 449.645714c4.604343 7.18019 13.405867 20.228876 26.4192 39.139962l-10.66301 16.186514a6400.126781 6400.126781 0 0 0-63.847619-101.596647c3.510857 27.359086 2.894019 53.057829-1.833448 77.123047l-3.456-1.288533c0.497371-36.139886-6.197638-73.909638-20.067961-113.319009l-20.503162 13.149866-7.325258 7.035124-11.704076-1.840762 37.277257-23.909181c-11.680914-18.212571-22.969295-35.107352-33.852952-50.729447l27.276191-4.640915-3.73882 10.576457 23.363048 36.426362 12.116114-7.771428 4.409296-15.68061 24.86979 3.911924-38.211048 24.507733 13.27421 20.695772c15.88541-3.943619 26.502095-5.495467 31.867124-4.662857 5.357714 0.854552 9.107505 2.922057 11.231086 6.23299 1.776152 2.768457 2.917181 5.924571 3.446247 9.473219 0.522971 3.57181 0.470552 5.540571-0.141409 5.933105-2.489295 1.596952-7.226514 0.363276-14.228724-3.726629-10.288762-5.085867-20.128914-8.122514-29.518019-9.109942l43.541943 67.883885z m13.959314-93.080381l44.732952-28.691504c0.804571-8.2944 1.200762-15.558705 1.159315-21.775848-0.032914-6.204952-0.635124-13.614324-1.765181-22.236648l26.202209 1.889524-7.194819 9.289143c-4.785981 56.816152-20.938362 106.135162-48.485181 147.941181l-3.054933-2.714819c16.892343-31.083276 27.885714-66.56 32.997181-106.460648-25.302552 19.349943-38.846171 33.094705-40.625981 41.247696l-18.475886-10.349715c5.855086-4.521448 9.33059-14.164114 10.414324-28.880457 1.083733-14.716343 0.260876-28.976762-2.469791-42.816609l-29.822781 19.126857-7.326476 7.035124-11.702857-1.840762 102.514591-65.751772 4.811581-17.108114 26.333866 4.141105-81.081295 52.004571 22.215924-0.227962-6.794972 7.862857c-2.076038 20.030171-6.254933 39.471543-12.58179 58.3168z m-36.182552-99.477943l1.734704-3.449904c17.295848-1.745676 27.511467-1.871238 30.661486-0.386438 3.13661 1.493333 5.432076 3.342629 6.842514 5.540571 2.1248 3.312152 2.890362 6.909562 2.313753 10.784914-0.591238 3.885105-1.49821 6.219581-2.736762 7.011962-1.862705 1.195886-5.188267-0.559543-9.969372-5.288228-7.443505-6.125714-17.055695-10.858057-28.846323-14.212877z m120.578438 54.69501l25.671923 1.060571-6.793752 7.864077c-3.035429 19.875352-7.41181 39.038781-13.112076 57.48419 28.8256-2.896457 46.826057-3.543771 54.009905-1.926095 7.176533 1.642057 12.007619 4.367848 14.487162 8.233447 1.06301 1.656686 1.687162 4.359314 1.91878 8.117639 0.208457 3.754667-0.301105 6.034286-1.539657 6.827885-2.490514 1.596952-7.89821-0.008533-16.223085-4.784762-12.937752-6.48899-31.024762-10.079086-54.258591-10.767847-12.637867 37.718552-32.299886 71.342324-58.9312 100.893257l-3.056152-2.7136c39.444724-53.340648 58.715429-110.101943 57.826743-170.288762z" p-id="1659" fill="#fd9e00"></path><path d="M743.403276 516.319086l-5.015162-8.152991a6349.291276 6349.291276 0 0 0-50.525866-80.738743c0.725333 18.887924-0.604648 37.054171-3.982629 54.2464l-1.383619 7.043658-14.206781-5.295543 0.058514-4.294705c0.454705-33.002057-5.339429-67.922895-17.230019-103.905524l-13.454628 8.629638-9.07581 8.716191-30.537143-4.801829 45.639924-29.27299c-10.300952-15.941486-20.51901-31.19421-30.423771-45.410743l-5.490591-7.881143 46.972343-7.992076-6.203733 17.544533 18.463695 28.785371 5.035886-3.230476 5.13219-18.250362-7.6032-1.195885 64.744838-41.525638c-1.243429-0.964267-2.552686-2.123581-3.947276-3.492572-6.726705-5.475962-15.619657-9.813333-26.438705-12.891428l-7.087543-2.016305 6.548724-13.024305 3.329219-0.335238c9.486629-0.958171 17.033752-1.443352 22.428038-1.443352 5.630781 0 9.053867 0.481524 11.444419 1.607923 4.204495 2.001676 7.350857 4.610438 9.373258 7.762896 2.302781 3.588876 3.463314 7.467886 3.46819 11.568762l30.201905-19.371886 5.651505-20.089905 47.527009 7.4752-76.742705 49.221486 14.527391-0.148724-14.381105 16.64a279.209448 279.209448 0 0 1-7.840914 41.730438l28.340419-18.177219c0.604648-6.92541 0.893562-13.040152 0.859428-18.210133-0.030476-5.827048-0.608305-13.053562-1.713981-21.485715l-0.97158-7.41059 45.002361 3.246324-13.062095 16.864304c-5.044419 56.856381-21.632 106.971429-49.314133 148.981029l-3.874133 5.879467-11.936915-10.605715 2.311315-4.252038c14.292114-26.296076 24.372419-56.244419 30.044647-89.211123-21.957486 18.032152-25.793829 25.608533-26.361905 28.208761l-1.754209 8.039619-33.699353-18.878171 7.29722-5.635657c3.025676-2.336914 6.881524-8.48579 8.060342-24.504076 0.80579-10.950705 0.504686-21.757562-0.893562-32.238934l-21.52838 13.806934-8.69181 8.348038 22.862019 3.59619-46.581029 29.876419 7.639772 11.910096c11.518781-2.709943 19.983848-4.03139 25.790171-4.031391 1.584762 0 2.967162 0.095086 4.224 0.290133 7.160686 1.142248 12.342857 4.156952 15.425829 8.964877 2.225981 3.466971 3.687619 7.459352 4.344686 11.86499 0.540038 3.693714 1.353143 9.250133-2.88061 11.963733-1.694476 1.08739-3.688838 1.6384-5.928228 1.6384-3.848533 0-8.452876-1.628648-14.473753-5.122438-4.640914-2.283276-9.198933-4.127695-13.643581-5.521066l35.682743 55.632457c4.638476 7.23261 13.488762 20.344686 26.309486 38.97539l2.325943 3.380419-18.186972 27.606553z m-73.163581-139.034819l14.623695 22.801066a6462.227505 6462.227505 0 0 1 58.888534 93.547277l3.145143-4.77501c-11.646781-16.954514-19.783924-29.029181-24.202972-35.921676l-87.6288-136.624762 1.275124-3.607162-7.61539 1.295848a1648.368152 1648.368152 0 0 1 28.422095 42.872685l0.42179-0.270628 0.722896 2.052876 2.25158 3.509638-0.828952 0.531505 0.412038 1.170286c6.658438 18.920838 11.704076 37.59299 15.114972 55.9104a272.75459 272.75459 0 0 0-1.553067-15.625753l-3.448686-26.86659z m32.062172 2.2528c4.665295 1.540876 9.40739 3.499886 14.199466 5.868495l0.373029 0.201143c2.108952 1.232457 3.755886 2.039467 5.016381 2.569752-0.458362-2.133333-1.21539-4.009448-2.296686-5.694171-1.128838-1.759086-3.503543-2.937905-7.060724-3.504762-0.598552-0.092648-1.390933-0.14141-2.3296-0.14141-2.088229-0.001219-4.727467 0.234057-7.901866 0.700953z m37.784381-14.641981l2.80259 1.570133c1.13859-1.854171 2.6624-3.963124 4.712838-6.390248l-7.515428 4.820115z m54.191542-44.804876l-1.856609 14.490819a368.374248 368.374248 0 0 1-1.7664 12.192914c3.926552-16.664381 6.662095-34.096762 8.190781-52.244724l0.151162-1.796876 1.333638-1.720076-7.499581-0.541257c0.608305 5.867276 0.917943 11.012876 0.942324 15.594057 0.029257 4.371505-0.154819 9.339124-0.546134 14.829714l1.050819-0.804571z m-108.181942 15.277104l-1.008153 3.581562 4.6848-3.003733-3.676647-0.577829z m55.978666-38.686476a164.715276 164.715276 0 0 1 2.162591 27.338362 269.430248 269.430248 0 0 0 4.063085-26.3936l0.104839-1.009371-6.330515 0.064609z m-16.368152-38.298819c4.694552 2.41981 8.9088 5.162667 12.615924 8.213943l0.412038 0.371809c0.911848 0.900876 1.682286 1.60061 2.322286 2.143086 0.024381-0.145067 0.047543-0.29501 0.071923-0.451047 0.3584-2.411276-0.09021-4.506819-1.417752-6.575543-0.75459-1.176381-2.222324-2.311314-4.247162-3.287772-0.232838-0.073143-1.72739-0.475429-6.311009-0.475428a100.501943 100.501943 0 0 0-3.446248 0.060952z m72.387048-17.048381l-1.408 5.007848 6.547504-4.199619-5.139504-0.808229z m-26.207086 252.028343l-11.747962-10.43261 3.313371-4.481219c38.443886-51.988724 57.4976-108.033219 56.633296-166.577981l-0.095086-6.446323 44.725638 1.848076-13.903238 16.095086c-2.566095 16.347429-6.076952 32.413257-10.460648 47.893942 14.320152-1.300724 25.645105-1.95901 33.744457-1.959009 5.842895 0 10.160762 0.3328 13.19741 1.016686 8.913676 2.039467 14.88579 5.600305 18.2784 10.889752 1.653029 2.577067 2.566095 6.083048 2.870857 11.032381 0.14141 2.551467 0.513219 9.226971-4.332495 12.334324-1.616457 1.03619-3.534019 1.5616-5.700267 1.5616-4.100876 0-9.40861-1.939505-16.692419-6.102553-11.246933-5.601524-27.070171-8.918552-47.086933-9.877943-12.884114 36.581181-32.618057 69.770971-58.694705 98.708724l-4.049676 4.497067z m93.333943-111.651352c8.471162 1.862705 15.85981 4.367848 22.109866 7.503238l0.301105 0.160914c4.282514 2.456381 7.015619 3.59741 8.66621 4.125257-0.004876-0.170667-0.01341-0.351086-0.024381-0.543695-0.247467-4.00579-0.93501-5.118781-0.963048-5.163886-1.540876-2.401524-5.246781-4.331276-10.716648-5.583238-1.436038-0.323048-4.44221-0.714362-10.498438-0.714362-2.600229-0.001219-5.561295 0.070705-8.874666 0.215772z m-32.928915-63.575772a264.566248 264.566248 0 0 1-10.680076 72.187124 293.561295 293.561295 0 0 0 1.850514-5.152914l-0.056076 0.004876 2.714819-8.783238c5.595429-18.106514 9.938895-37.151695 12.910934-56.605257l0.208457-1.365334-6.948572-0.285257z" p-id="1660" fill="#fd9e00"></path></svg>